<mxfile host="app.diagrams.net" agent="Mozilla/5.0 (Windows NT 10.0; Win64; x64) AppleWebKit/537.36 (KHTML, like Gecko) Chrome/128.0.0.0 YaBrowser/24.10.0.0 Safari/537.36" version="24.8.4">
  <diagram id="C5RBs43oDa-KdzZeNtuy" name="Page-1">
    <mxGraphModel dx="2390" dy="1382" grid="1" gridSize="10" guides="1" tooltips="1" connect="1" arrows="1" fold="1" page="1" pageScale="1" pageWidth="827" pageHeight="1169" math="0" shadow="0">
      <root>
        <mxCell id="WIyWlLk6GJQsqaUBKTNV-0" />
        <mxCell id="WIyWlLk6GJQsqaUBKTNV-1" parent="WIyWlLk6GJQsqaUBKTNV-0" />
        <mxCell id="wuCSJRg2hZtlYlo7H3hx-0" value="Задание 2" style="text;html=1;align=center;verticalAlign=middle;whiteSpace=wrap;rounded=0;" vertex="1" parent="WIyWlLk6GJQsqaUBKTNV-1">
          <mxGeometry x="20" y="600" width="60" height="30" as="geometry" />
        </mxCell>
        <mxCell id="wuCSJRg2hZtlYlo7H3hx-3" style="edgeStyle=orthogonalEdgeStyle;rounded=0;orthogonalLoop=1;jettySize=auto;html=1;" edge="1" parent="WIyWlLk6GJQsqaUBKTNV-1" source="wuCSJRg2hZtlYlo7H3hx-2" target="wuCSJRg2hZtlYlo7H3hx-4">
          <mxGeometry relative="1" as="geometry">
            <mxPoint x="420" y="730" as="targetPoint" />
          </mxGeometry>
        </mxCell>
        <mxCell id="wuCSJRg2hZtlYlo7H3hx-2" value="Начало" style="rounded=1;whiteSpace=wrap;html=1;" vertex="1" parent="WIyWlLk6GJQsqaUBKTNV-1">
          <mxGeometry x="360" y="630" width="120" height="60" as="geometry" />
        </mxCell>
        <mxCell id="wuCSJRg2hZtlYlo7H3hx-7" value="" style="edgeStyle=orthogonalEdgeStyle;rounded=0;orthogonalLoop=1;jettySize=auto;html=1;" edge="1" parent="WIyWlLk6GJQsqaUBKTNV-1" source="wuCSJRg2hZtlYlo7H3hx-4" target="wuCSJRg2hZtlYlo7H3hx-6">
          <mxGeometry relative="1" as="geometry" />
        </mxCell>
        <mxCell id="wuCSJRg2hZtlYlo7H3hx-4" value="Ввод a, b" style="shape=parallelogram;perimeter=parallelogramPerimeter;whiteSpace=wrap;html=1;fixedSize=1;" vertex="1" parent="WIyWlLk6GJQsqaUBKTNV-1">
          <mxGeometry x="360" y="730" width="120" height="60" as="geometry" />
        </mxCell>
        <mxCell id="wuCSJRg2hZtlYlo7H3hx-19" value="" style="edgeStyle=orthogonalEdgeStyle;rounded=0;orthogonalLoop=1;jettySize=auto;html=1;entryX=0.5;entryY=0;entryDx=0;entryDy=0;exitX=0;exitY=0.5;exitDx=0;exitDy=0;" edge="1" parent="WIyWlLk6GJQsqaUBKTNV-1" source="wuCSJRg2hZtlYlo7H3hx-6" target="wuCSJRg2hZtlYlo7H3hx-18">
          <mxGeometry relative="1" as="geometry">
            <mxPoint x="420" y="910" as="sourcePoint" />
          </mxGeometry>
        </mxCell>
        <mxCell id="wuCSJRg2hZtlYlo7H3hx-22" value="" style="edgeStyle=orthogonalEdgeStyle;rounded=0;orthogonalLoop=1;jettySize=auto;html=1;" edge="1" parent="WIyWlLk6GJQsqaUBKTNV-1" source="wuCSJRg2hZtlYlo7H3hx-6" target="wuCSJRg2hZtlYlo7H3hx-21">
          <mxGeometry relative="1" as="geometry">
            <Array as="points">
              <mxPoint x="540" y="870" />
            </Array>
          </mxGeometry>
        </mxCell>
        <mxCell id="wuCSJRg2hZtlYlo7H3hx-6" value="a % b == 0?" style="rhombus;whiteSpace=wrap;html=1;" vertex="1" parent="WIyWlLk6GJQsqaUBKTNV-1">
          <mxGeometry x="360" y="830" width="120" height="80" as="geometry" />
        </mxCell>
        <mxCell id="wuCSJRg2hZtlYlo7H3hx-24" style="edgeStyle=orthogonalEdgeStyle;rounded=0;orthogonalLoop=1;jettySize=auto;html=1;entryX=0.5;entryY=0;entryDx=0;entryDy=0;" edge="1" parent="WIyWlLk6GJQsqaUBKTNV-1" source="wuCSJRg2hZtlYlo7H3hx-18" target="wuCSJRg2hZtlYlo7H3hx-23">
          <mxGeometry relative="1" as="geometry">
            <mxPoint x="300" y="1010" as="targetPoint" />
            <Array as="points">
              <mxPoint x="300" y="1010" />
              <mxPoint x="420" y="1010" />
            </Array>
          </mxGeometry>
        </mxCell>
        <mxCell id="wuCSJRg2hZtlYlo7H3hx-18" value="Вывод: Кратно" style="shape=parallelogram;perimeter=parallelogramPerimeter;whiteSpace=wrap;html=1;fixedSize=1;" vertex="1" parent="WIyWlLk6GJQsqaUBKTNV-1">
          <mxGeometry x="240" y="930" width="120" height="60" as="geometry" />
        </mxCell>
        <mxCell id="wuCSJRg2hZtlYlo7H3hx-25" style="edgeStyle=orthogonalEdgeStyle;rounded=0;orthogonalLoop=1;jettySize=auto;html=1;" edge="1" parent="WIyWlLk6GJQsqaUBKTNV-1" source="wuCSJRg2hZtlYlo7H3hx-21">
          <mxGeometry relative="1" as="geometry">
            <mxPoint x="420" y="1050" as="targetPoint" />
            <Array as="points">
              <mxPoint x="540" y="1010" />
            </Array>
          </mxGeometry>
        </mxCell>
        <mxCell id="wuCSJRg2hZtlYlo7H3hx-21" value="Вывод: не кратно" style="shape=parallelogram;perimeter=parallelogramPerimeter;whiteSpace=wrap;html=1;fixedSize=1;" vertex="1" parent="WIyWlLk6GJQsqaUBKTNV-1">
          <mxGeometry x="480" y="930" width="120" height="60" as="geometry" />
        </mxCell>
        <mxCell id="wuCSJRg2hZtlYlo7H3hx-23" value="Конец" style="rounded=1;whiteSpace=wrap;html=1;" vertex="1" parent="WIyWlLk6GJQsqaUBKTNV-1">
          <mxGeometry x="360" y="1050" width="120" height="60" as="geometry" />
        </mxCell>
        <mxCell id="wuCSJRg2hZtlYlo7H3hx-26" value="Да" style="text;html=1;align=center;verticalAlign=middle;whiteSpace=wrap;rounded=0;" vertex="1" parent="WIyWlLk6GJQsqaUBKTNV-1">
          <mxGeometry x="300" y="840" width="60" height="30" as="geometry" />
        </mxCell>
        <mxCell id="wuCSJRg2hZtlYlo7H3hx-27" value="Нет" style="text;html=1;align=center;verticalAlign=middle;whiteSpace=wrap;rounded=0;" vertex="1" parent="WIyWlLk6GJQsqaUBKTNV-1">
          <mxGeometry x="480" y="840" width="60" height="30" as="geometry" />
        </mxCell>
      </root>
    </mxGraphModel>
  </diagram>
</mxfile>
